<?xml version="1.0" encoding="iso-8859-1"?>
<!-- Uploaded to: SVG Repo, www.svgrepo.com, Generator: SVG Repo Mixer Tools -->
<svg fill="#000000" height="800px" width="800px" version="1.1" id="Layer_1" xmlns="http://www.w3.org/2000/svg" xmlns:xlink="http://www.w3.org/1999/xlink" 
	 viewBox="0 0 512 512" xml:space="preserve">
<g>
	<g>
		<g>
			<path d="M344.445,193.916c-11.306,0-20.494,9.242-20.494,20.653c0,11.41,9.188,20.659,20.494,20.659
				c11.292,0,20.482-9.249,20.482-20.659C364.927,203.156,355.738,193.916,344.445,193.916z"/>
			<path d="M167.568,193.916c-11.306,0-20.494,9.242-20.494,20.653c0,11.41,9.188,20.659,20.494,20.659
				c11.292,0,20.482-9.249,20.482-20.659C188.05,203.156,178.861,193.916,167.568,193.916z"/>
			<path d="M436.992,75.724C388.644,27.595,324.365,1.089,256,1.089S123.356,27.595,75.008,75.724C26.638,123.873,0,187.896,0,256
				v254.911h512V256C512,187.896,485.362,123.873,436.992,75.724z M405.777,477.52H106.223V221.423
				c0-40.616,33.229-73.66,74.073-73.66c24.914,0,48.02,12.363,61.806,33.072L256,201.71l13.897-20.875
				c13.786-20.708,36.892-33.072,61.806-33.072c40.844,0,74.073,33.044,74.073,73.66V477.52z"/>
			<polygon points="190.986,313.846 256,416.616 321.014,313.846 256,255.644 			"/>
		</g>
	</g>
</g>
</svg>