<?xml version="1.0" standalone="no"?>
<!DOCTYPE svg PUBLIC "-//W3C//DTD SVG 20010904//EN"
 "http://www.w3.org/TR/2001/REC-SVG-20010904/DTD/svg10.dtd">
<svg version="1.0" xmlns="http://www.w3.org/2000/svg"
 width="2500.000000pt" height="2000.000000pt" viewBox="0 0 2500.000000 2000.000000"
 preserveAspectRatio="xMidYMid meet">

<g transform="translate(0.000000,2000.000000) scale(0.100000,-0.100000)"
fill="#000000" stroke="none">
<path d="M0 10000 l0 -10000 12500 0 12500 0 0 10000 0 10000 -12500 0 -12500
0 0 -10000z m1936 9836 c17 -13 18 -16 3 -31 -17 -17 -44 -12 -53 12 -13 32
16 43 50 19z m10366 -116 c40 -42 48 -56 48 -88 0 -43 -15 -67 -81 -135 -41
-41 -53 -48 -80 -45 l-33 3 -18 105 c-21 121 -18 143 24 182 47 44 82 38 140
-22z m-2370 12 c29 -29 33 -73 8 -105 -24 -31 -48 -34 -90 -12 -55 28 -65 81
-24 122 20 20 31 24 57 19 18 -4 40 -14 49 -24z m1584 -213 c3 -6 1 -16 -4
-21 -13 -13 -45 8 -36 23 7 12 31 11 40 -2z m5966 -35 c59 -30 62 -81 13 -187
-56 -121 -106 -167 -180 -167 -50 0 -98 23 -124 58 -25 36 -27 72 -5 114 18
35 148 177 179 195 23 14 75 8 117 -13z m-17132 -30 c50 -20 69 -49 46 -72
-34 -35 -135 -5 -144 42 -10 48 27 58 98 30z m11691 -43 c21 -17 22 -22 11
-45 -14 -31 -74 -60 -103 -51 -35 11 -46 65 -22 108 9 15 91 7 114 -12z m9053
-27 c13 -33 -24 -65 -50 -43 -19 16 -17 46 3 57 20 12 39 6 47 -14z m-2426
-166 c38 -38 -16 -115 -75 -109 -18 1 -16 46 2 81 20 39 50 51 73 28z m52
-216 c0 -23 -19 -42 -42 -42 -24 0 -34 26 -18 45 18 22 60 19 60 -3z m-5620
-192 c27 -27 25 -37 -14 -76 -57 -57 -110 -41 -104 33 2 28 9 41 28 50 36 18
67 16 90 -7z m6505 -76 c26 -28 34 -64 14 -64 -20 0 -79 53 -79 71 0 28 36 24
65 -7z m208 -130 c59 -30 77 -54 77 -101 0 -57 -36 -98 -78 -89 -46 11 -82 60
-82 111 0 51 17 95 37 95 8 0 28 -7 46 -16z m-1244 -65 c34 -34 39 -60 15 -83
-35 -36 -104 -6 -104 45 0 28 29 69 49 69 5 0 23 -14 40 -31z m-9164 -69 c9
-15 -14 -40 -36 -40 -20 0 -23 8 -13 34 7 18 39 22 49 6z m-5341 -18 c3 -5
-13 -27 -34 -51 -46 -50 -83 -54 -88 -9 -5 39 28 68 77 68 22 0 42 -4 45 -8z
m20480 -118 c9 -3 16 -12 16 -20 0 -20 -32 -34 -53 -23 -39 22 -6 60 37 43z
m-24270 -239 c83 -31 167 -85 163 -105 -3 -20 -169 -35 -209 -19 -60 24 -86
91 -49 128 12 12 23 21 25 21 2 0 33 -11 70 -25z m1646 -20 c0 -14 -4 -25 -8
-25 -5 0 -32 -20 -61 -45 -40 -34 -61 -45 -86 -45 -39 0 -49 11 -41 46 5 19
24 33 79 59 90 42 117 44 117 10z m15128 -304 c5 -31 -25 -56 -45 -40 -14 12
-18 51 -6 63 16 15 48 1 51 -23z m4547 -11 c3 -5 1 -10 -4 -10 -6 0 -11 5 -11
10 0 6 2 10 4 10 3 0 8 -4 11 -10z m-6620 -20 c3 -5 1 -10 -4 -10 -6 0 -11 5
-11 10 0 6 2 10 4 10 3 0 8 -4 11 -10z m-9615 -384 c0 -7 -6 -19 -14 -25 -19
-16 -32 5 -16 24 16 19 30 19 30 1z m5389 -207 c10 -11 21 -33 24 -47 15 -77
-87 -113 -112 -41 -16 46 -14 66 9 89 26 26 54 25 79 -1z m-4785 -45 c3 -9 6
-51 6 -95 0 -66 -3 -82 -20 -99 -30 -30 -62 -25 -110 18 -36 32 -42 42 -37 64
4 14 24 37 47 52 22 14 47 37 56 51 18 28 49 33 58 9z m-5579 -85 c8 -23 -7
-45 -24 -35 -12 8 -15 39 -4 49 12 12 22 7 28 -14z m5515 -199 c24 -24 24 -29
4 -58 -27 -40 -74 -22 -74 28 0 49 36 64 70 30z m7160 -45 c13 -16 6 -35 -15
-35 -18 0 -28 17 -21 35 7 19 20 19 36 0z m-5869 -5 c24 -14 24 -32 -1 -55
-36 -33 -78 9 -45 45 21 23 20 23 46 10z m9413 -149 c3 -5 0 -13 -7 -19 -15
-13 -42 1 -33 17 9 13 33 15 40 2z m-16250 -117 c20 -8 21 -54 2 -54 -20 0
-39 27 -32 45 6 17 8 17 30 9z m10694 -30 c12 -8 22 -26 22 -40 0 -19 -5 -24
-25 -24 -58 0 -93 38 -63 68 16 16 39 15 66 -4z m244 -21 c10 -9 18 -30 18
-49 0 -56 -78 -98 -110 -59 -15 18 -8 88 10 110 17 20 59 19 82 -2z m9358 -33
c14 -26 -2 -79 -30 -105 -26 -24 -63 -16 -74 17 -8 22 -5 34 17 67 31 47 69
55 87 21z m2722 -17 c24 -21 23 -46 -3 -69 -28 -25 -147 -24 -165 1 -32 44 33
100 105 90 25 -3 53 -13 63 -22z m-11504 -119 c40 -28 22 -74 -29 -74 -64 0
-99 32 -79 71 13 24 76 26 108 3z m2328 -241 c-11 -11 -19 6 -11 24 8 17 8 17
12 0 3 -10 2 -21 -1 -24z m-4608 -29 c4 -27 -24 -39 -36 -16 -5 9 -7 23 -5 30
8 20 38 9 41 -14z m1951 -18 c13 -16 2 -55 -22 -74 -30 -25 -45 36 -20 81 7
12 30 8 42 -7z m6344 -17 c41 -50 9 -119 -56 -119 -32 0 -87 48 -87 75 0 68
98 98 143 44z m-6965 -41 c16 -16 15 -33 -4 -52 -19 -20 -54 -5 -54 22 0 20
18 42 35 42 6 0 16 -5 23 -12z m-4386 -39 c20 -40 16 -65 -13 -74 -49 -16 -89
36 -69 89 15 41 57 33 82 -15z m-2648 -8 c7 -10 -22 -37 -30 -28 -9 8 3 37 15
37 5 0 12 -4 15 -9z m3989 -200 c2 -36 -2 -45 -20 -52 -16 -6 -28 -3 -44 10
-21 17 -22 21 -9 50 7 18 20 39 28 48 22 22 42 -3 45 -56z m-1823 -32 c0 -5
-4 -9 -10 -9 -5 0 -10 7 -10 16 0 8 5 12 10 9 6 -3 10 -10 10 -16z m3771 -165
c10 -13 10 -17 -2 -25 -18 -12 -26 -11 -34 1 -8 13 1 40 13 40 5 0 15 -7 23
-16z m4724 -23 c8 -14 -23 -41 -40 -35 -18 7 -19 16 -3 32 14 14 35 16 43 3z
m771 -56 c32 -48 -49 -124 -85 -81 -17 21 -5 72 22 91 27 19 46 16 63 -10z
m-5197 -164 c11 -20 5 -31 -15 -31 -14 0 -27 28 -18 41 9 14 23 10 33 -10z
m-2039 -21 c54 -13 90 -35 90 -55 0 -22 -29 -45 -56 -45 -15 0 -36 -12 -54
-32 l-29 -31 -40 18 c-22 10 -47 26 -56 35 -14 16 -14 21 1 59 19 48 50 74 79
67 11 -2 40 -10 65 -16z m1490 -160 c0 -24 -26 -38 -42 -22 -16 16 -2 42 22
42 13 0 20 -7 20 -20z m9675 -75 c0 -10 -5 -20 -11 -22 -13 -4 -27 24 -18 38
9 15 29 4 29 -16z m-2867 -32 c-4 -22 -38 -30 -38 -10 0 14 13 24 33 26 5 1 7
-7 5 -16z m-9120 -79 c32 -36 29 -79 -8 -114 -57 -53 -135 -48 -165 11 -31 58
-9 101 63 123 56 17 79 13 110 -20z m12976 10 c3 -8 2 -12 -4 -9 -6 3 -10 10
-10 16 0 14 7 11 14 -7z m-6211 -42 c16 -17 14 -32 -4 -32 -14 0 -39 31 -34
41 9 14 20 11 38 -9z m-6629 -94 c3 -13 1 -27 -4 -32 -15 -15 -40 2 -40 29 0
33 35 35 44 3z m3150 -25 c48 -39 68 -79 46 -93 -18 -11 -149 -5 -192 9 -89
29 -36 116 73 120 16 1 44 -13 73 -36z m-1892 -78 c2 -12 -3 -20 -11 -20 -20
0 -35 29 -27 50 6 16 9 17 21 4 7 -8 15 -23 17 -34z m-5128 -181 c35 -35 32
-94 -4 -94 -15 0 -26 13 -40 46 -11 25 -20 50 -20 55 0 15 47 10 64 -7z m1384
-92 c4 -28 -24 -41 -44 -20 -20 20 -7 50 20 46 13 -2 22 -12 24 -26z m10616
-118 c29 -11 19 -63 -18 -100 -76 -76 -121 -9 -50 75 26 31 39 36 68 25z
m-13313 -45 c29 -37 31 -44 23 -77 -5 -21 -16 -38 -26 -40 -9 -2 -41 11 -72
28 -48 27 -56 36 -56 61 0 22 8 34 33 49 46 28 61 25 98 -21z m6835 -20 c17
-19 17 -23 3 -47 -27 -49 -89 -32 -89 23 0 44 54 59 86 24z m13532 -175 c26
-18 29 -55 5 -76 -20 -17 -107 -48 -134 -48 -25 0 -32 16 -25 54 10 51 47 86
93 86 21 0 49 -7 61 -16z m-18884 -77 c12 -9 19 -28 20 -53 1 -38 -1 -40 -54
-66 -30 -15 -63 -27 -73 -27 -19 -1 -67 41 -67 58 0 22 56 72 95 86 50 18 57
18 79 2z m8491 -24 c76 -5 95 -14 95 -46 0 -11 9 -34 19 -51 42 -69 31 -158
-28 -210 -11 -11 -21 -25 -21 -31 0 -7 -8 -23 -19 -36 l-19 -23 -39 27 c-21
15 -46 27 -55 27 -22 0 -124 102 -147 148 -11 21 -27 44 -36 52 -9 7 -23 26
-31 42 -14 27 -13 30 10 53 18 18 36 25 64 25 25 0 48 7 63 20 17 14 32 18 49
14 14 -4 57 -8 95 -11z m-9589 -17 c61 -28 89 -63 138 -170 42 -93 45 -128 11
-178 -35 -51 -130 -78 -181 -50 -40 21 -162 160 -189 215 -31 64 -29 89 11
136 31 37 56 52 104 62 53 10 51 10 106 -15z m17612 -15 c-2 -9 -11 -17 -21
-19 -21 -4 -35 27 -17 38 19 12 42 0 38 -19z m-15065 -160 c32 -12 41 -38 23
-67 -21 -31 -70 -40 -101 -20 -32 21 -31 31 4 67 32 32 38 33 74 20z m18403
-116 c8 -20 -13 -45 -37 -45 -27 0 -33 19 -13 41 21 23 42 25 50 4z m-13191
-255 c15 -17 16 -24 5 -49 -22 -53 -69 -50 -70 4 0 22 26 65 39 65 4 0 16 -9
26 -20z m13359 -75 c13 -35 -21 -63 -55 -45 -19 10 -26 40 -12 53 12 13 61 7
67 -8z m-8242 -30 c8 -19 8 -31 0 -50 -15 -33 -59 -35 -71 -2 -22 59 45 108
71 52z m1379 -42 l38 -38 -7 -65 c-7 -65 -7 -65 -52 -87 -25 -12 -53 -22 -62
-23 -29 0 -77 49 -84 87 -8 43 12 137 34 159 27 27 89 12 133 -33z m-15074
-59 c8 -23 -17 -43 -57 -45 -42 -3 -61 6 -54 26 12 30 101 46 111 19z m8502
-19 c48 -24 58 -88 17 -106 -47 -22 -106 10 -106 57 0 60 34 78 89 49z m9067
-20 c15 -23 15 -27 0 -50 -20 -30 -69 -57 -90 -49 -22 9 -30 48 -15 76 28 52
78 64 105 23z m-9584 -19 c13 -20 8 -36 -18 -59 -14 -12 -41 -37 -60 -55 -37
-36 -57 -36 -103 -1 -15 12 -40 19 -66 19 -49 0 -70 18 -61 54 8 34 35 41 68
16 39 -28 70 -25 120 14 25 18 51 35 59 38 15 6 50 -9 61 -26z m11345 -152 c5
-14 -11 -34 -27 -34 -3 0 -11 4 -19 9 -19 12 -6 41 19 41 11 0 23 -7 27 -16z
m-10407 -164 c0 -26 -19 -35 -37 -18 -13 13 -12 17 2 32 19 19 35 13 35 -14z
m11385 -95 c26 -25 32 -63 15 -96 -16 -29 -74 -26 -105 6 -39 38 -32 72 20 99
39 21 42 20 70 -9z m-18135 -37 c0 -19 -32 -48 -52 -48 -24 0 -34 26 -18 45
15 18 70 20 70 3z m-306 -124 c29 -28 14 -59 -41 -87 -39 -21 -67 -22 -83 -3
-19 24 -7 59 29 83 40 27 73 29 95 7z m581 -8 c12 -8 18 -25 18 -47 -1 -77
-13 -241 -18 -249 -13 -20 -75 -11 -101 16 -30 29 -27 64 8 101 l21 22 -37 41
c-44 49 -51 105 -13 120 34 13 101 12 122 -4z m15575 0 c0 -3 -4 -8 -10 -11
-5 -3 -10 -1 -10 4 0 6 5 11 10 11 6 0 10 -2 10 -4z m-12895 -66 c8 -25 -10
-50 -35 -50 -21 0 -33 25 -25 51 9 26 52 25 60 -1z m-765 -260 c0 -5 -7 -10
-16 -10 -8 0 -12 5 -9 10 3 6 10 10 16 10 5 0 9 -4 9 -10z m888 -86 c42 -29
17 -82 -33 -70 -33 8 -46 54 -20 73 24 16 26 16 53 -3z m-3702 -89 c4 -8 3
-27 0 -41 -5 -20 -12 -25 -33 -22 -14 2 -31 11 -37 21 -9 15 -7 22 13 38 28
23 50 24 57 4z m13684 -100 c0 -19 -24 -29 -46 -21 -13 5 -14 9 -4 21 16 20
50 19 50 0z m-16130 -15 c0 -11 -7 -20 -15 -20 -15 0 -21 21 -8 33 12 13 23 7
23 -13z m2454 -46 c11 -29 6 -81 -9 -94 -18 -15 -91 -4 -99 16 -9 23 14 62 48
78 40 20 52 20 60 0z m-604 -62 c25 -20 20 -42 -8 -42 -24 0 -62 28 -62 46 0
20 43 18 70 -4z m17978 -30 c7 -50 -49 -72 -70 -27 -14 32 5 57 41 53 18 -2
27 -10 29 -26z m-16734 -34 c8 -14 7 -21 -6 -34 -30 -31 -84 10 -57 43 16 18
49 13 63 -9z m5979 -13 c1 -5 -6 -11 -15 -13 -11 -2 -18 3 -18 13 0 17 30 18
33 0z m11237 -59 c16 -20 9 -56 -12 -70 -40 -25 -79 41 -41 69 23 18 38 18 53
1z m-16652 -118 c3 -27 -20 -54 -38 -43 -14 9 -13 62 3 68 21 9 32 1 35 -25z
m7065 -42 c7 -20 5 -33 -7 -51 -20 -30 -26 -31 -60 -4 -32 25 -34 62 -5 83 28
19 60 7 72 -28z m-10825 -32 c4 -29 -23 -51 -43 -34 -18 15 -19 32 -3 48 18
18 42 10 46 -14z m9829 -192 c59 -56 67 -68 64 -105 -1 -19 -56 -57 -83 -57
-9 0 -35 15 -57 34 -56 47 -75 51 -115 27 -56 -35 -96 -21 -111 40 -10 41 20
69 86 78 30 4 66 15 79 24 42 29 70 21 137 -41z m7113 -12 c64 -32 64 -33 75
-131 l6 -57 -56 -46 c-50 -40 -63 -46 -103 -46 -26 0 -53 4 -60 9 -7 4 -19 32
-27 62 -28 104 -16 161 45 213 40 33 48 33 120 -4z m-3862 8 c27 -27 -5 -73
-38 -53 -14 9 -12 52 3 58 19 8 22 8 35 -5z m-4438 -80 c0 -20 -32 -48 -55
-48 -42 0 -42 54 -1 70 23 8 56 -4 56 -22z m9008 10 c18 -18 15 -48 -6 -48
-10 0 -23 5 -30 12 -18 18 -15 48 6 48 10 0 23 -5 30 -12z m-2940 -24 c4 -25
-22 -49 -43 -40 -22 8 -29 34 -14 52 17 21 53 14 57 -12z m8920 -126 c16 -16
15 -60 0 -81 -17 -23 -112 -35 -133 -17 -35 29 -9 69 61 94 49 18 57 19 72 4z
m-16042 -9 c10 -17 -13 -36 -27 -22 -12 12 -4 33 11 33 5 0 12 -5 16 -11z
m6204 -4 c0 -8 -7 -15 -15 -15 -16 0 -20 12 -8 23 11 12 23 8 23 -8z m10039
-11 c12 -15 21 -33 21 -40 0 -22 -38 -54 -64 -54 -27 0 -76 35 -76 54 0 27 41
66 70 66 19 0 36 -9 49 -26z m-17904 -45 c0 -40 -2 -44 -25 -44 -21 0 -25 5
-28 35 -3 24 2 38 14 47 28 21 39 10 39 -38z m-4894 -252 c19 -12 42 -39 52
-60 19 -37 19 -39 -6 -130 -14 -51 -29 -110 -32 -132 -8 -51 -26 -84 -95 -172
-64 -83 -87 -99 -155 -108 -27 -3 -73 -11 -102 -17 -44 -9 -60 -8 -97 6 -87
33 -156 142 -141 222 5 31 45 74 68 74 6 0 71 30 145 66 143 71 153 81 167
165 14 92 119 138 196 86z m11334 -22 c11 -22 35 -62 53 -89 37 -58 42 -109
13 -171 -10 -22 -21 -57 -25 -77 -8 -42 -14 -45 -104 -54 -37 -3 -82 -10 -101
-16 -28 -9 -37 -7 -60 9 -14 11 -45 22 -68 25 -23 3 -56 16 -73 28 -41 29 -40
66 4 123 19 25 41 58 50 74 23 44 119 133 177 163 75 40 108 36 134 -15z
m-8888 -116 c16 -16 5 -39 -17 -39 -22 0 -52 28 -45 41 8 13 49 11 62 -2z
m-1487 -179 c48 -25 57 -65 16 -76 -52 -13 -132 49 -105 82 16 19 43 18 89 -6z
m18338 -2 c7 -7 12 -24 12 -38 0 -33 -17 -50 -49 -50 -28 0 -61 26 -61 48 0
41 69 69 98 40z m-7010 -35 c2 -14 -3 -23 -18 -28 -25 -8 -50 10 -50 37 0 30
64 22 68 -9z m6530 -23 c1 -14 -2 -31 -7 -39 -8 -12 -12 -12 -25 -2 -16 14
-22 52 -9 65 14 14 38 0 41 -24z m1019 -36 c29 -11 43 -23 43 -35 0 -20 -28
-39 -59 -39 -23 0 -61 44 -61 71 0 23 21 24 77 3z m-18517 -166 c11 -24 20
-52 20 -63 0 -28 -79 -105 -108 -105 -40 0 -89 29 -102 61 -19 45 0 78 68 116
80 44 99 43 122 -9z m11088 -48 c1 -9 -4 -24 -13 -35 -15 -20 -15 -20 -30 -1
-10 14 -12 24 -4 38 12 22 42 20 47 -2z m-6073 -10 c0 -22 -29 -18 -33 3 -3
14 1 18 15 15 10 -2 18 -10 18 -18z m6490 -60 c-19 -30 -74 23 -60 57 6 16 10
14 36 -15 16 -18 27 -37 24 -42z m-4310 -70 c3 -5 1 -10 -4 -10 -6 0 -11 5
-11 10 0 6 2 10 4 10 3 0 8 -4 11 -10z m-6305 -45 c15 -18 7 -43 -16 -52 -24
-9 -46 24 -33 48 12 23 32 24 49 4z m418 -17 c17 -17 15 -89 -4 -116 -32 -46
-105 -67 -122 -35 -11 18 30 142 51 155 18 12 62 9 75 -4z m3482 -107 c14 -26
13 -78 -2 -87 -26 -17 -75 76 -51 99 13 14 43 7 53 -12z m4454 -19 c2 -4 1
-14 -3 -21 -11 -18 -45 -10 -49 12 -3 12 3 17 22 17 14 0 27 -4 30 -8z m-2794
-142 c21 -23 37 -30 64 -30 45 0 45 -13 1 -57 -32 -32 -37 -34 -82 -28 -79 10
-92 14 -103 34 -19 37 28 111 71 111 12 0 34 -13 49 -30z m14248 -36 c28 -19
28 -48 1 -68 -27 -18 -59 -8 -79 27 -12 21 -12 28 -1 41 17 20 50 20 79 0z
m447 -4 c3 -10 1 -28 -5 -40 -19 -35 -80 -20 -80 20 0 40 73 58 85 20z
m-15987 -32 c27 -27 3 -108 -31 -108 -27 0 -57 28 -57 53 0 25 37 67 60 67 9
0 21 -5 28 -12z m-1965 -64 c48 -23 62 -49 46 -85 -18 -45 -68 -50 -126 -13
-33 20 -31 67 3 93 32 25 34 25 77 5z m9945 -21 c-3 -32 -41 -45 -51 -19 -10
26 3 46 30 46 21 0 24 -4 21 -27z m-1330 -15 c19 -19 14 -47 -14 -73 -30 -28
-81 -33 -90 -10 -21 54 65 122 104 83z m9192 -8 c0 -21 -33 -29 -45 -10 -9 15
4 30 26 30 12 0 19 -7 19 -20z m-8130 -35 c0 -13 -21 -25 -46 -25 -20 0 -18
27 3 38 20 12 43 5 43 -13z m1290 -97 c20 -36 5 -62 -39 -66 -35 -4 -59 11
-71 43 -21 55 80 77 110 23z m6100 -118 c0 -24 -26 -38 -42 -22 -16 16 -2 42
22 42 13 0 20 -7 20 -20z m-14441 -14 c15 -14 42 -28 61 -33 45 -12 68 -50 55
-90 -9 -23 -24 -32 -89 -57 -93 -33 -114 -30 -159 26 -19 24 -31 52 -34 81
l-5 45 48 25 c64 32 92 32 123 3z m2079 -149 c5 -42 -23 -79 -56 -75 -21 2
-28 9 -30 31 -5 42 23 79 56 75 21 -2 28 -9 30 -31z m3383 -148 c8 -15 8 -24
0 -32 -15 -15 -46 16 -38 37 9 22 24 20 38 -5z m1021 -56 c54 -62 -9 -117 -67
-58 -29 28 -31 38 -9 59 21 21 57 20 76 -1z m-4708 -29 c20 -19 20 -24 0 -52
-28 -40 -94 -24 -94 23 0 12 5 26 12 33 17 17 64 15 82 -4z m-3768 -180 c9
-33 -13 -73 -44 -81 -30 -7 -44 12 -37 51 7 39 23 56 51 56 17 0 25 -7 30 -26z
m1797 17 c34 -13 37 -29 22 -96 -23 -98 -62 -101 -109 -8 -22 45 -20 79 6 97
26 18 46 20 81 7z m-3118 -241 c9 -14 -13 -50 -30 -50 -15 0 -21 40 -8 53 10
10 31 8 38 -3z m11345 -40 c19 -19 18 -40 -3 -67 -21 -28 -97 -5 -97 28 0 16
48 59 65 59 8 0 24 -9 35 -20z m-6502 -12 c-6 -18 -28 -21 -28 -4 0 9 7 16 16
16 9 0 14 -5 12 -12z m486 -324 c23 -9 1 -34 -30 -34 -28 0 -31 15 -6 29 21
13 17 12 36 5z m8774 -119 c15 -33 15 -55 0 -55 -20 0 -48 32 -48 57 0 32 33
31 48 -2z m2733 -1 c11 -14 10 -18 -6 -30 -45 -33 -127 -10 -112 30 9 22 99
22 118 0z m-12071 -19 c16 -19 5 -61 -17 -70 -30 -11 -69 55 -46 78 12 12 50
7 63 -8z m-9636 -31 c28 -27 16 -114 -15 -114 -4 0 -21 12 -38 26 -34 29 -39
58 -14 86 20 22 46 23 67 2z m4238 -379 c0 -5 -5 -11 -11 -13 -6 -2 -11 4 -11
13 0 9 5 15 11 13 6 -2 11 -8 11 -13z m1843 -110 c23 -22 25 -32 25 -114 0
-50 -5 -101 -11 -115 -21 -46 -59 -43 -85 5 -8 16 -31 40 -52 53 -51 32 -65
52 -65 88 0 20 8 37 24 50 80 64 124 73 164 33z m-5551 -77 c14 -23 -12 -101
-36 -106 -24 -5 -58 33 -58 65 0 55 67 84 94 41z m8569 -100 c8 -12 7 -24 -1
-42 -24 -54 -83 -16 -62 39 11 30 46 32 63 3z m-8913 -583 c0 -8 -7 -15 -15
-15 -16 0 -20 12 -8 23 11 12 23 8 23 -8z m3065 -30 c0 -24 -5 -31 -25 -33
-34 -5 -100 16 -100 32 0 16 55 35 95 33 26 -2 30 -6 30 -32z m13920 -29 c22
-16 25 -77 5 -101 -31 -38 -93 0 -93 57 0 50 48 74 88 44z m4556 -12 c39 -20
37 -54 -5 -69 -24 -8 -31 -6 -47 14 -23 28 -23 35 -3 55 19 20 18 20 55 0z
m-21313 -98 c-2 -13 -10 -21 -23 -21 -23 0 -32 30 -14 51 16 19 41 -1 37 -30z
m11095 -180 c8 -20 -8 -38 -29 -34 -22 4 -31 37 -13 48 15 10 36 3 42 -14z
m805 -19 c2 -9 -4 -20 -13 -23 -20 -8 -50 19 -40 36 10 17 49 8 53 -13z
m-8205 -318 c36 -19 107 -92 107 -111 0 -37 -77 -51 -130 -23 -58 30 -77 88
-40 125 23 23 33 24 63 9z m7585 -10 c56 -27 43 -43 -36 -44 -46 0 -57 3 -60
18 -4 22 15 47 36 47 9 0 35 -10 60 -21z m8301 -56 c37 -30 48 -133 19 -170
-15 -19 -116 -73 -137 -73 -27 0 -40 20 -52 81 -8 42 -7 63 3 94 24 71 116
109 167 68z m-7705 -1 c9 -14 -12 -35 -28 -29 -23 9 -20 37 3 37 11 0 22 -4
25 -8z m4636 -74 c0 -21 -22 -48 -39 -48 -28 0 -33 28 -11 50 19 19 50 18 50
-2z m-6233 -139 c17 -17 4 -39 -22 -39 -28 0 -38 12 -29 34 7 19 35 21 51 5z
m9077 -25 c9 -8 16 -20 16 -25 0 -37 -75 -119 -107 -119 -24 0 -53 30 -53 55
0 14 18 36 51 63 57 46 70 50 93 26z m-6578 -50 c50 -33 64 -52 64 -85 0 -76
-146 -94 -179 -22 -16 35 -4 90 26 113 33 26 42 25 89 -6z m10454 -19 c0 -20
-44 -47 -72 -43 l-23 3 27 28 c29 29 68 36 68 12z m-6163 -400 c71 -30 100
-61 148 -161 25 -52 45 -109 45 -126 0 -34 -33 -93 -60 -108 -40 -21 -103 -29
-134 -16 -45 19 -169 154 -201 219 -31 64 -29 89 11 136 36 43 68 58 147 70 4
0 24 -6 44 -14z m-479 -53 c3 -19 -1 -23 -15 -20 -10 2 -19 14 -21 26 -3 19 1
23 15 20 10 -2 19 -14 21 -26z m-6634 -191 c10 -11 15 -25 11 -30 -10 -17 -75
-13 -81 4 -17 43 37 62 70 26z m1274 -117 c45 -31 19 -84 -41 -84 -51 0 -62
65 -15 88 31 14 30 14 56 -4z m-1009 -66 c28 -33 51 -70 51 -82 0 -28 -65
-113 -92 -122 -24 -7 -68 22 -85 57 -9 19 -7 43 5 109 10 47 20 90 25 97 13
21 45 2 96 -59z m9120 42 c25 -13 33 -37 21 -61 -20 -36 -70 -17 -70 26 0 12
5 26 12 33 14 14 15 14 37 2z m-8838 -66 c17 -21 0 -49 -32 -49 -27 0 -37 28
-19 50 16 19 34 19 51 -1z m12597 -66 c18 -18 14 -56 -7 -68 -15 -7 -23 -6
-35 6 -20 20 -20 38 0 58 19 19 26 20 42 4z m-15230 -34 c5 -51 -52 -86 -86
-52 -33 33 3 91 52 86 27 -3 31 -8 34 -34z m-4900 -80 c4 -25 -22 -49 -43 -40
-31 12 -9 70 25 64 8 -2 16 -13 18 -24z m-1300 -40 c46 -32 11 -83 -60 -86
-62 -2 -76 27 -37 76 24 30 63 34 97 10z m13810 -292 c2 -22 -2 -34 -12 -38
-34 -13 -61 37 -34 64 21 21 43 9 46 -26z m-3174 -51 c24 -27 33 -113 13 -130
-13 -10 -18 -8 -30 16 -9 15 -29 41 -46 57 -17 17 -31 35 -31 41 0 36 66 47
94 16z m-2237 -61 c28 -54 7 -142 -34 -148 -30 -4 -53 33 -53 88 0 81 57 120
87 60z m5441 -31 c1 -13 -7 -39 -18 -57 -18 -29 -25 -33 -58 -30 -29 2 -38 8
-40 25 -2 16 7 28 37 47 21 14 42 30 46 36 11 18 30 6 33 -21z m-5832 -64 c3
-8 3 -19 0 -24 -10 -16 -36 -1 -36 20 0 22 28 26 36 4z m6562 -138 c5 -41 -22
-67 -68 -67 -25 0 -40 5 -44 16 -18 47 17 87 72 82 32 -3 37 -7 40 -31z
m-4894 -54 c4 -9 2 -21 -4 -27 -13 -13 -46 17 -36 33 11 16 33 13 40 -6z
m8435 -89 c62 -36 81 -54 81 -75 0 -10 -30 -52 -67 -93 -63 -70 -71 -75 -108
-75 -45 0 -65 12 -101 60 -31 42 -30 74 1 115 14 18 25 37 25 43 0 6 9 20 20
31 29 29 92 26 149 -6z m-7715 -16 c27 -39 -18 -80 -52 -46 -13 13 -16 50 -5
61 13 14 42 6 57 -15z m3854 -10 c7 -7 12 -35 12 -63 0 -54 -12 -75 -43 -75
-17 0 -33 27 -51 87 -13 41 52 81 82 51z m-108 -328 c0 -5 -2 -10 -4 -10 -3 0
-8 5 -11 10 -3 6 -1 10 4 10 6 0 11 -4 11 -10z m-16240 -301 c0 -11 -4 -17
-10 -14 -5 3 -10 13 -10 21 0 8 5 14 10 14 6 0 10 -9 10 -21z m4470 -23 c0
-25 -25 -43 -35 -25 -10 15 5 49 21 49 8 0 14 -10 14 -24z m7583 -197 c29 -16
37 -28 37 -61 0 -54 -90 -90 -132 -51 -25 22 -23 65 5 90 36 33 58 38 90 22z
m-12235 -139 c5 -47 -66 -95 -82 -54 -7 18 17 70 36 77 25 11 43 1 46 -23z
m12080 -6 c5 -55 -48 -72 -67 -22 -13 34 5 60 37 56 22 -2 28 -9 30 -34z
m8710 -11 c-3 -33 -6 -38 -28 -38 -34 0 -39 37 -8 59 33 24 40 20 36 -21z
m-5280 -110 c25 -47 24 -84 -1 -122 -14 -21 -30 -56 -36 -78 -14 -50 -34 -68
-92 -80 -70 -15 -79 -6 -79 82 0 83 2 86 98 169 56 49 95 59 110 29z m-15560
-52 c-2 -20 -10 -27 -29 -29 -32 -4 -53 20 -45 52 12 50 80 28 74 -23z m12382
-160 c0 -11 -4 -22 -9 -25 -12 -8 -34 21 -26 34 11 17 35 11 35 -9z m-10084
-153 c9 -30 -30 -62 -65 -53 -55 14 -69 51 -23 61 15 3 32 7 37 9 27 9 44 3
51 -17z m12140 -178 c21 -31 25 -47 20 -74 -18 -93 -89 -64 -118 48 -12 46
-12 49 11 67 29 24 51 13 87 -41z m6067 -252 c27 -36 15 -78 -27 -93 -23 -8
-30 -6 -42 10 -17 23 -18 87 -2 103 19 19 49 10 71 -20z m-11939 -263 c-7 -17
-20 -20 -28 -6 -7 10 3 21 20 21 8 0 11 -6 8 -15z m7330 -1 c21 -21 20 -47 -3
-68 -47 -43 -87 18 -44 67 20 21 27 21 47 1z m2002 -20 c9 -34 -18 -64 -44
-48 -35 23 -27 74 12 74 19 0 27 -7 32 -26z m-17067 -2 c17 -31 -17 -58 -51
-40 -18 9 -24 39 -11 51 13 14 53 7 62 -11z m22165 -3 c-3 -5 -10 -7 -15 -3
-5 3 -7 10 -3 15 3 5 10 7 15 3 5 -3 7 -10 3 -15z m-1018 -25 c68 -20 88 -44
70 -88 -7 -17 -27 -41 -46 -53 -70 -48 -136 -15 -147 73 -5 46 -3 53 18 68 29
20 37 20 105 0z m-2342 -10 c17 -16 20 -33 10 -58 -7 -19 -45 -21 -62 -4 -18
18 -15 55 6 67 23 14 28 14 46 -5z m-19664 -41 c0 -30 -38 -83 -60 -83 -41 0
-44 65 -3 89 29 17 63 13 63 -6z m14640 -53 c0 -5 -4 -10 -10 -10 -5 0 -10 5
-10 10 0 6 5 10 10 10 6 0 10 -4 10 -10z m-13169 -61 c18 -29 9 -64 -27 -102
-29 -31 -42 -38 -68 -35 -31 3 -31 3 -34 69 -4 85 8 99 73 89 26 -4 51 -13 56
-21z m10249 -38 c0 -24 -18 -37 -32 -23 -8 8 -7 16 2 27 17 21 30 19 30 -4z
m1715 -156 c30 -30 31 -54 4 -89 -27 -35 -75 -36 -90 -2 -15 31 -3 92 19 105
27 16 41 13 67 -14z m-10357 -37 c-3 -7 -14 -14 -26 -16 -16 -3 -20 1 -16 12
7 19 48 22 42 4z m3636 -4 c20 -19 20 -28 1 -44 -27 -23 -65 10 -51 45 7 19
30 19 50 -1z m-1184 -64 c0 -5 -4 -10 -9 -10 -6 0 -13 5 -16 10 -3 6 1 10 9
10 9 0 16 -4 16 -10z m-4895 -37 c76 -6 95 -15 95 -46 0 -11 10 -36 22 -55 34
-55 31 -120 -9 -169 -17 -22 -38 -56 -47 -77 -20 -48 -36 -52 -81 -22 -21 14
-44 26 -51 26 -20 0 -121 104 -143 148 -11 21 -27 44 -36 52 -9 7 -23 26 -31
42 -14 27 -13 30 10 53 18 18 36 25 63 25 21 0 51 9 68 20 18 13 38 18 50 14
11 -3 52 -8 90 -11z m3524 -89 c23 -29 19 -44 -30 -131 -42 -74 -80 -103 -134
-103 -35 0 -48 5 -64 26 -42 53 -18 111 75 188 69 56 119 63 153 20z m8180
-70 c35 -29 38 -49 15 -82 -35 -50 -144 -13 -144 48 0 62 73 81 129 34z
m-7135 -140 c8 -21 -1 -34 -25 -34 -12 0 -19 7 -19 18 0 34 33 45 44 16z
m17677 6 c27 -15 24 -56 -5 -75 -51 -34 -113 29 -66 67 25 21 43 22 71 8z
m-16441 -174 c0 -28 -38 -49 -63 -34 -23 12 -21 34 3 58 16 16 25 18 40 10 11
-6 20 -21 20 -34z m12872 -50 c15 -33 4 -56 -26 -56 -29 0 -50 31 -41 60 9 29
53 26 67 -4z m-5228 -109 c26 -19 17 -52 -14 -52 -25 0 -37 22 -26 51 7 17 17
18 40 1z m-11046 -133 c37 -25 21 -121 -23 -138 -43 -16 -123 74 -99 112 25
40 84 53 122 26z m-2110 -22 c2 -14 -2 -22 -12 -22 -19 0 -29 17 -22 36 8 22
30 12 34 -14z"/>
</g>
</svg>
