<?xml version="1.0" encoding="iso-8859-1"?>
<!-- Uploaded to: SVG Repo, www.svgrepo.com, Generator: SVG Repo Mixer Tools -->
<svg height="800px" width="800px" version="1.1" id="Layer_1" xmlns="http://www.w3.org/2000/svg" xmlns:xlink="http://www.w3.org/1999/xlink" 
	 viewBox="0 0 511.998 511.998" xml:space="preserve">
<polygon style="fill:#FF5023;" points="152.151,168.931 359.846,168.931 327.796,504.395 184.202,504.395 156.822,217.827 "/>
<polygon style="opacity:0.32;fill:#891C00;enable-background:new    ;" points="334.446,168.931 304.781,479.436 183.761,479.436 
	186.145,504.395 329.74,504.395 361.79,168.931 "/>
<polygon style="fill:#D7D5D9;" points="225.589,130.096 377.257,130.096 387.941,168.931 124.057,168.931 134.741,130.096 
	166.78,130.096 "/>
<polygon style="fill:#77757E;" points="377.257,130.096 361.773,130.096 366.579,147.569 129.933,147.569 124.057,168.931 
	387.941,168.931 "/>
<path style="fill:#891C00;" d="M264.05,504.395c0,0,60.54-7.478,60.54-85.681s-65.17-86.539-65.17-158.975
	s26.709-90.808,26.709-90.808h-38.461c0,0-26.709,18.372-26.709,90.808s65.17,80.772,65.17,158.975s-60.54,85.681-60.54,85.681
	H264.05z"/>
<path d="M395.273,166.915L384.59,128.08c-0.908-3.3-3.908-5.587-7.331-5.587H267.026V79.888c0-21.265-10.749-40.714-28.752-52.028
	L195.803,1.167c-3.556-2.236-8.25-1.163-10.484,2.391c-2.235,3.556-1.164,8.25,2.392,10.484l42.469,26.693
	c13.548,8.513,21.637,23.15,21.637,39.152v42.604h-26.228c-4.199,0-7.604,3.404-7.604,7.604c0,4.2,3.405,7.604,7.604,7.604h145.873
	l6.5,23.627h-18.114H152.151h-18.116l6.5-23.627h26.245c4.199,0,7.604-3.404,7.604-7.604c0-4.2-3.405-7.604-7.604-7.604h-32.039
	c-3.423,0-6.424,2.287-7.331,5.587l-10.684,38.835c-0.63,2.288-0.154,4.739,1.284,6.626c1.438,1.887,3.675,2.995,6.048,2.995h28.094
	h79.434c-8.411,13.668-18.227,39.068-18.227,83.204c0,38.138,16.906,59.827,33.257,80.799c16.412,21.054,31.914,40.94,31.914,78.174
	c0,67.817-48.262,77.257-53.479,78.077h-33.934l-26.721-279.687c-0.399-4.181-4.117-7.262-8.292-6.847
	c-4.18,0.399-7.245,4.112-6.846,8.292l27.379,286.568c0.373,3.902,3.65,6.881,7.569,6.881h41.356c0.007,0,0.014,0.001,0.021,0.001
	c0.005,0,0.011-0.001,0.016-0.001h38.423c0.007,0,0.014,0.001,0.021,0.001c0.005,0,0.011-0.001,0.016-0.001h63.739
	c3.92,0,7.197-2.979,7.569-6.881l31.394-328.583h21.183c2.373,0,4.61-1.108,6.048-2.995
	C395.427,171.653,395.902,169.203,395.273,166.915z M293.735,418.714c0-42.463-17.857-65.371-35.127-87.524
	c-15.449-19.819-30.043-38.54-30.043-71.451c0-56.379,16.769-77.88,21.99-83.204h19.491c-8.411,13.668-18.227,39.068-18.227,83.204
	c0,38.138,16.906,59.827,33.257,80.799c16.411,21.054,31.913,40.94,31.913,78.174c0,67.817-48.262,77.257-53.478,78.077h-2.865
	C275.776,485.089,293.735,462.066,293.735,418.714z M299.104,496.791c8.7-6.727,18.326-17.207,24.945-33.131l-3.165,33.131H299.104z
	 M330.437,396.798c-4.909-29.097-19.333-47.602-33.369-65.607c-15.449-19.819-30.043-38.54-30.043-71.451
	c0-56.379,16.77-77.88,21.989-83.204h62.467L330.437,396.798z"/>
</svg>