<?xml version="1.0" encoding="iso-8859-1"?>
<!-- Uploaded to: SVG Repo, www.svgrepo.com, Generator: SVG Repo Mixer Tools -->
<svg version="1.1" id="Layer_1" xmlns="http://www.w3.org/2000/svg" xmlns:xlink="http://www.w3.org/1999/xlink" 
	 viewBox="0 0 306.156 306.156" xml:space="preserve">
<g id="XMLID_1805_">
	<path id="XMLID_30_" style="fill:#ACABB1;" d="M253.078,66.162c-4.627,17.916-51.946,21.189-105.693,7.312
		c-53.747-13.879-93.568-39.65-88.942-57.565C63.07-2.008,110.389-5.283,164.137,8.596c37.561,9.698,68.32,25.206,81.861,39.782
		C251.833,54.66,253.078,60.368,253.078,66.162z"/>
	<path id="XMLID_1806_" style="fill:#808084;" d="M152.995,5.951c-48.997-10.693-90.248-6.709-94.552,9.958
		c-4.626,17.915,35.195,43.687,88.941,57.564c1.881,0.486,3.747,0.933,5.61,1.376L152.995,5.951L152.995,5.951z"/>
	<polygon id="XMLID_1807_" style="fill:#FF5023;" points="243.078,286.156 63.078,286.156 63.078,216.16 73.078,186.156 
		63.078,156.158 63.078,86.156 243.078,86.156 243.078,156.158 233.078,186.157 243.078,216.156 	"/>
	<polygon id="XMLID_1808_" style="fill:#BD3C1A;" points="153.078,286.156 63.078,286.156 63.078,216.156 73.078,186.157 
		63.078,156.158 63.078,86.156 153.078,86.156 	"/>
	<rect id="XMLID_1809_" x="53.078" y="276.156" style="fill:#DEDDE0;" width="200" height="30"/>
	<rect id="XMLID_1810_" x="53.078" y="276.156" style="fill:#CDCDD0;" width="100" height="30"/>
	<rect id="XMLID_1811_" x="53.078" y="66.156" style="fill:#DEDDE0;" width="200" height="30"/>
	<rect id="XMLID_1812_" x="53.078" y="66.156" style="fill:#CDCDD0;" width="100" height="30"/>
	<path id="XMLID_1813_" style="fill:#FFFFFF;" d="M243.078,156.156h-38.047c-10.375-17.929-29.748-30-51.953-30
		c-22.204,0-41.577,12.071-51.953,30H63.078v60h38.047c10.376,17.929,29.748,30,51.953,30s41.578-12.071,51.953-30h38.047V156.156z"
		/>
	<path id="XMLID_1814_" style="fill:#FFE98F;" d="M153.078,126.156c-22.204,0-41.577,12.071-51.953,30H63.078v60h38.047
		c10.376,17.929,29.748,30,51.953,30C153.078,206.157,153.078,153.49,153.078,126.156z"/>
	<g id="XMLID_1815_">
		<g id="XMLID_1816_">
			<ellipse id="XMLID_1817_" style="fill:#FF5023;" cx="153.078" cy="192.31" rx="40" ry="33.846"/>
			<path id="XMLID_1818_" style="fill:#BD3C1A;" d="M153.078,226.156c-22.091,0-40-15.152-40-33.846s17.909-33.846,40-33.846"/>
		</g>
		<path id="XMLID_17_" style="fill:#91DC5A;" d="M122.311,163.283c7.967,6.541,18.813,10.565,30.767,10.565
			s22.8-4.024,30.766-10.565c0.001-0.001,0.004-0.005,0.004-0.005s-10.318-6.585-20.416-4.526
			c-3.484-7.424-10.354-12.596-10.354-12.596s-6.969,5.006-10.43,12.582c-10.073-2.01-20.34,4.54-20.34,4.54L122.311,163.283z"/>
		<path id="XMLID_1819_" style="fill:#64C37D;" d="M153.078,146.156c0,0-6.969,5.006-10.43,12.582
			c-10.073-2.01-20.34,4.54-20.34,4.54l0.003,0.005c7.967,6.541,18.813,10.565,30.767,10.565
			C153.078,163.285,153.078,146.156,153.078,146.156z"/>
	</g>
</g>
</svg>