<?xml version="1.0" encoding="iso-8859-1"?>
<!-- Uploaded to: SVG Repo, www.svgrepo.com, Generator: SVG Repo Mixer Tools -->
<svg version="1.1" id="Layer_1" xmlns="http://www.w3.org/2000/svg" xmlns:xlink="http://www.w3.org/1999/xlink" 
	 viewBox="0 0 511.999 511.999" xml:space="preserve">
<polyline style="fill:#FBB03B;" points="207.973,47.884 207.973,7.861 304.027,7.861 304.027,47.884 "/>
<rect x="231.984" y="7.861" style="fill:#F15A24;" width="48.027" height="40.027"/>
<rect x="215.98" y="47.884" style="fill:#ED1E79;" width="80.043" height="32.018"/>
<g>
	<rect x="215.98" y="47.884" style="fill:#9E005D;" width="32.018" height="32.018"/>
	<path style="fill:#9E005D;" d="M352.053,175.955c0-54.344-45.131-98.148-99.958-95.976c-50.401,1.997-91.579,44.442-92.143,94.878
		c-0.302,26.968,10.522,51.394,28.16,69.005c7.477,7.466,2.663,20.142-7.904,20.142h-3.065c-9.499,0-17.199,7.7-17.199,17.199
		v222.935h192.109V281.203c0-9.499-7.7-17.199-17.199-17.199h-3.097c-10.251,0-15.653-12.475-8.349-19.668
		C341.088,226.928,352.053,202.73,352.053,175.955z"/>
</g>
<path style="fill:#ED1E79;" d="M334.854,265.685h-3.097c-10.251,0-15.653-13.316-8.348-20.51
	c17.679-17.408,28.644-42.025,28.644-68.801c0-54.344-45.131-98.359-99.958-96.185c-5.496,0.217-10.855,0.894-16.09,2.031
	c43.414,9.229,76.026,47.621,76.026,93.787c0,26.774-10.965,51.787-28.644,69.194c-7.305,7.193-1.903,20.484,8.348,20.484h3.097
	c9.499,0,17.543,6.018,17.543,15.518V504.65h39.827V281.203C352.203,271.705,344.354,265.685,334.854,265.685z"/>
<rect x="159.949" y="304.03" style="fill:#FFFFFF;" width="192.104" height="160.085"/>
<rect x="159.949" y="440.103" style="fill:#F15A24;" width="96.057" height="24.014"/>
<path style="fill:#FBB03B;" d="M262.042,464.118c-8.789-10.963-14.046-24.88-14.046-40.024c0-35.366,28.669-64.036,64.036-64.036
	c15.162,0,29.093,5.27,40.062,14.077l-0.04,89.982L262.042,464.118z"/>
<rect x="214.9" y="256.258" width="81.751" height="15.721"/>
<rect x="183.458" y="329.624" style="fill:#F15A24;" width="89.088" height="15.721"/>
<rect x="183.458" y="353.73" width="31.443" height="15.721"/>
<rect x="183.458" y="377.836" style="fill:#F15A24;" width="16.769" height="15.721"/>
<path style="fill:#FFFFFF;" d="M327.897,168.213h-15.721c0-22.01-17.617-40.428-40.675-40.428v-15.721
	C302.943,112.064,327.897,136.77,327.897,168.213z"/>
<path d="M334.854,256.145h-3.097c-2.377,0-3.322-1.857-3.556-2.427c-0.334-0.816-0.685-2.393,0.722-3.779
	c19.984-19.677,30.99-45.951,30.99-73.981c0-28.537-11.333-55.146-31.913-74.927c-7.558-7.264-15.995-13.238-25.059-17.842V55.019
	h17.818V39.298h-8.872V0H200.113v39.298h-8.267v15.721h15.721v29.3c-32.461,17.518-55.043,51.873-55.474,90.45
	c-0.315,28.21,10.504,54.724,30.466,74.654c1.897,1.894,1.249,3.963,1.005,4.553c-0.409,0.988-1.323,2.166-3.354,2.166h-3.065
	c-13.818,0-25.06,11.242-25.06,25.059v230.797h207.829V281.203C359.914,267.385,348.672,256.145,334.854,256.145z M240.056,39.298
	V15.721h31.443v23.577C271.499,39.298,240.056,39.298,240.056,39.298z M296.166,39.298h-8.945V15.721h8.945V39.298z M215.834,15.721
	h8.502v23.577h-8.502V15.721z M223.287,55.019h63.933v21.763c-11.276-3.535-23.217-5.141-35.437-4.658
	c-9.888,0.392-19.455,2.242-28.496,5.324L223.287,55.019L223.287,55.019z M167.806,449.101h76.844c1.064,2.87,2.31,5.67,3.731,8.385
	h-80.575V449.101z M344.193,496.279H167.806v-23.072h176.386V496.279z M344.193,457.486h-77.336
	c-7.201-9.705-11.001-21.202-11.001-33.391c0-30.975,25.2-56.175,56.175-56.175c11.681,0,22.72,3.495,32.162,10.122V457.486z
	 M344.193,359.8c-9.928-4.955-20.965-7.601-32.162-7.601c-39.644,0-71.897,32.252-71.897,71.897c0,3.115,0.209,6.216,0.61,9.285
	h-72.939V313.898h176.387V359.8z M344.193,298.176H167.806v-16.973c0-4.958,3.888-9.016,8.775-9.309l31.738,0.08l0.442-15.196
	l-9.689,0.116c1.531-6.606-0.434-13.629-5.407-18.595c-16.94-16.914-26.122-39.412-25.854-63.353
	c0.517-46.206,38.466-85.284,84.594-87.112c24.267-0.951,47.244,7.751,64.7,24.528c17.467,16.789,27.086,39.373,27.086,63.593
	c0,23.784-9.341,46.08-26.3,62.78c-4.77,4.698-6.653,11.171-5.289,17.518h-8.613v15.721h32.211c4.512,0.656,7.992,4.539,7.992,9.229
	V298.176z"/>
</svg>