<?xml version="1.0" encoding="iso-8859-1"?>
<!-- Uploaded to: SVG Repo, www.svgrepo.com, Generator: SVG Repo Mixer Tools -->
<svg height="800px" width="800px" version="1.1" id="Layer_1" xmlns="http://www.w3.org/2000/svg" xmlns:xlink="http://www.w3.org/1999/xlink" 
	 viewBox="0 0 320 320" xml:space="preserve">
<g>
	<path style="fill:#D7143A;" d="M255,20h-10.73l-5.854-11.708C235.876,3.21,230.682,0,225,0H95c-5.682,0-10.876,3.21-13.416,8.292
		L75.729,20H65c-8.284,0-15,6.716-15,15v80v100v80c0,8.284,6.716,15,15,15h15.872c2.061,5.822,7.6,10,14.128,10h130
		c6.528,0,12.067-4.178,14.128-10H255c8.284,0,15-6.716,15-15v-80V115V35C270,26.716,263.284,20,255,20z"/>
	<polygon style="fill:#FFFFFF;" points="255,115 240,115 80,115 65,115 50,115 50,215 65,215 80,215 240,215 255,215 270,215 
		270,115 	"/>
	<path style="fill:#A7A6AC;" d="M95,320h130c6.528,0,12.067-4.178,14.128-10H80.872C82.933,315.822,88.472,320,95,320z"/>
	<path style="fill:#A7A6AC;" d="M227.5,20h16.77l-5.854-11.708C235.876,3.21,230.682,0,225,0H95c-5.682,0-10.876,3.21-13.416,8.292
		L75.729,20H92.5H227.5z"/>
</g>
</svg>