<?xml version="1.0" encoding="utf-8"?>
<!-- Uploaded to: SVG Repo, www.svgrepo.com, Generator: SVG Repo Mixer Tools -->
<svg width="800px" height="800px" viewBox="0 0 1024 1024" class="icon"  version="1.1" xmlns="http://www.w3.org/2000/svg"><path d="M830.104 238.856v662.944c0 49.832-40.392 90.192-90.16 90.192H284.152c-49.768 0-90.16-40.368-90.16-90.192V238.856" fill="#F0AF2D" /><path d="M511.944 238.856V992h228c49.768 0 90.16-40.368 90.16-90.192V238.856h-318.16z" fill="#E59330" /><path d="M320.16 441.504h63.152V789.36H320.16zM480.432 441.504h63.16V789.36h-63.16z" fill="#D98D1B" /><path d="M640.72 441.504h63.16V789.36H640.72z" fill="#CA7C18" /><path d="M896.088 302.104H127.912a63.16 63.16 0 0 1 0-126.296h768.176a63.152 63.152 0 0 1 0 126.296z" fill="#E5226B" /><path d="M512.032 175.808h384.048a63.144 63.144 0 0 1 63.152 63.144 63.136 63.136 0 0 1-63.152 63.152H512.032V175.808z" fill="#CB1B5B" /><path d="M324.968 153.048C324.968 103.624 408.712 32 512.032 32c103.288 0 187.024 71.624 187.024 121.048" fill="#0092D2" /><path d="M512.032 153.048h187.024C699.064 103.624 615.32 32 512.032 32" fill="#1B81CC" /></svg>