<?xml version="1.0" encoding="utf-8"?><!-- Uploaded to: SVG Repo, www.svgrepo.com, Generator: SVG Repo Mixer Tools -->
<svg fill="#000000" width="800px" height="800px" viewBox="0 0 24 24" id="soda-bottle" data-name="Flat Line" xmlns="http://www.w3.org/2000/svg" class="icon flat-line"><path id="secondary" d="M9,21h6a1,1,0,0,0,1-1.08l-.21-2.46a23.7,23.7,0,0,1,.1-4.91h0A3.12,3.12,0,0,0,15,9.92h0a3.13,3.13,0,0,1-1-2.25V3H10V7.67A3.13,3.13,0,0,1,9,9.92H9a3.12,3.12,0,0,0-.93,2.63h0a23.7,23.7,0,0,1,.1,4.91L8,19.92A1,1,0,0,0,9,21Z" style="fill: rgb(44, 169, 188); stroke-width: 2;"></path><path id="primary" d="M8,19.92l.21-2.46a23.7,23.7,0,0,0-.1-4.91h0A3.12,3.12,0,0,1,9,9.92H9a3.13,3.13,0,0,0,1-2.25V3h4V7.67a3.13,3.13,0,0,0,1,2.25h0a3.12,3.12,0,0,1,.93,2.63h0a23.7,23.7,0,0,0-.1,4.91L16,19.92A1,1,0,0,1,15,21H9A1,1,0,0,1,8,19.92ZM9,3h6" style="fill: none; stroke: rgb(0, 0, 0); stroke-linecap: round; stroke-linejoin: round; stroke-width: 2;"></path></svg>