<?xml version="1.0" encoding="iso-8859-1"?>
<!-- Uploaded to: SVG Repo, www.svgrepo.com, Generator: SVG Repo Mixer Tools -->
<svg xmlns="http://www.w3.org/2000/svg" xmlns:xlink="http://www.w3.org/1999/xlink" version="1.1" id="Layer_1"  viewBox="0 0 502 502" xml:space="preserve" width="512" height="512">
<g>
	<g>
		<rect x="226.013" y="10" style="fill:#E6E6E6;" width="49.975" height="32.796"/>
		<path style="fill:#8CC63F;" d="M316.261,171.864c0-5.15-1.155-10.233-3.38-14.877l-42.335-88.352V42.796h-39.09v25.839    l-42.191,88.37c-2.211,4.632-3.359,9.7-3.359,14.832v8.104h130.355V171.864z"/>
		<path style="fill:#8CC63F;" d="M316.261,306.157v-13.913H185.906v13.913l8.181,64.03c0.902,7.064-0.437,14.272-4.034,20.419    c-6.292,10.753-10.11,24.842-10.11,40.275c0,33.755,18.243,61.12,40.746,61.12c5.358,0,10.47-1.567,15.156-4.386    C240.531,490.433,245.642,492,251,492c5.358,0,10.469-1.567,15.156-4.386c4.686,2.819,9.798,4.386,15.156,4.386    c22.504,0,40.746-27.364,40.746-61.12c0-15.415-3.809-29.488-10.087-40.236c-3.605-6.17-4.946-13.402-4.025-20.488    L316.261,306.157z"/>
		<rect x="185.906" y="179.942" style="fill:#E6E6E6;" width="130.355" height="112.301"/>
	</g>
	<g>
		<path d="M175.905,306.156c0,0.424,0.027,0.847,0.081,1.268l8.181,64.029c0.636,4.981-0.339,9.99-2.745,14.102    c-7.402,12.651-11.479,28.748-11.479,45.326c0,39.88,22.291,71.119,50.747,71.119c5.2,0,10.276-1.062,15.155-3.164    C240.724,500.938,245.8,502,251,502s10.277-1.062,15.156-3.164c4.879,2.103,9.955,3.164,15.155,3.164    c28.456,0,50.746-31.239,50.746-71.119c0-16.558-4.067-32.639-11.452-45.281c-2.417-4.138-3.392-9.165-2.743-14.155l8.315-64    c0.055-0.427,0.083-0.857,0.083-1.288V171.863c0-6.603-1.508-13.241-4.361-19.197l-41.354-86.304V51.689    c3.228-1.659,5.441-5.014,5.441-8.893V10c0-5.522-4.478-10-10-10h-49.975c-5.522,0-10,4.478-10,10v32.796    c0,3.879,2.214,7.235,5.442,8.894V66.37l-41.215,86.328c-2.836,5.94-4.335,12.56-4.335,19.14V306.156z M195.905,189.942h110.355    v92.301H195.905V189.942z M236.013,20h29.975v12.796h-29.975V20z M198.289,161.314l42.19-88.371    c0.643-1.346,0.976-2.817,0.976-4.309V52.796h19.091v15.839c0,1.496,0.336,2.973,0.981,4.321l42.335,88.352    c1.292,2.697,2.083,5.649,2.321,8.635H195.98C196.216,166.96,197.002,164.011,198.289,161.314z M281.312,482    c-3.376,0-6.74-0.994-10-2.956c-1.586-0.954-3.371-1.431-5.155-1.431s-3.569,0.477-5.155,1.431c-6.52,3.924-13.481,3.924-20.001,0    c-3.172-1.908-7.139-1.908-10.311,0c-3.26,1.962-6.624,2.956-10,2.956c-16.667,0-30.747-23.41-30.747-51.119    c0-13.082,3.104-25.592,8.741-35.225c4.625-7.903,6.515-17.398,5.321-26.737l-8.1-63.399v-3.276h110.355v3.267l-8.232,63.359    c-1.215,9.356,0.671,18.881,5.308,26.818c5.624,9.628,8.722,22.127,8.722,35.193C312.058,458.59,297.978,482,281.312,482z"/>
		<path d="M213.898,203.732c-5.522,0-10,4.478-10,10v3.975c0,5.522,4.478,10,10,10s10-4.478,10-10v-3.975    C223.898,208.21,219.421,203.732,213.898,203.732z"/>
		<path d="M213.898,235.534c-5.522,0-10,4.478-10,10v18.882c0,5.522,4.478,10,10,10s10-4.478,10-10v-18.882    C223.898,240.012,219.421,235.534,213.898,235.534z"/>
	</g>
</g>















</svg>